<?xml version="1.0" standalone="no"?>
<!DOCTYPE svg PUBLIC "-//W3C//DTD SVG 20010904//EN"
 "http://www.w3.org/TR/2001/REC-SVG-20010904/DTD/svg10.dtd">
<svg version="1.0" xmlns="http://www.w3.org/2000/svg"
 width="260.000000pt" height="260.000000pt" viewBox="0 0 260.000000 260.000000"
 preserveAspectRatio="xMidYMid meet">
<metadata>
Created by potrace 1.11, written by Peter Selinger 2001-2013
</metadata>
<g transform="translate(0.000000,260.000000) scale(0.100000,-0.100000)"
fill="#000000" stroke="none">
<path d="M1414 2460 c-138 -19 -314 -71 -363 -109 l-24 -18 25 -34 c14 -19 42
-67 62 -107 20 -40 57 -100 81 -133 96 -130 143 -246 125 -308 -6 -22 -5 -31
6 -35 8 -3 78 -8 156 -12 l143 -7 26 27 c44 44 51 143 22 335 -16 106 -16 118
0 195 9 44 17 97 17 117 0 81 -96 112 -276 89z"/>
<path d="M1730 2371 c0 -20 -7 -74 -17 -119 -15 -78 -15 -91 1 -195 22 -153
21 -260 -4 -316 -11 -24 -19 -45 -18 -46 2 -1 17 -11 33 -22 17 -11 97 -55
179 -97 169 -87 204 -93 256 -50 53 45 76 101 141 346 5 21 34 66 63 100 86
102 93 127 50 177 -69 82 -353 196 -611 245 l-73 14 0 -37z"/>
<path d="M830 2297 c-113 -47 -284 -161 -359 -241 l-35 -36 46 0 c52 0 92 -23
175 -101 35 -33 92 -68 178 -110 123 -61 215 -127 215 -155 0 -8 1 -14 3 -14
9 0 155 53 182 66 86 41 67 132 -71 330 -35 50 -74 117 -88 148 -60 135 -122
164 -246 113z"/>
<path d="M413 1959 c-51 -33 -121 -134 -183 -264 -32 -66 -62 -135 -68 -152
l-11 -32 42 5 c83 12 327 -46 442 -103 28 -14 71 -41 96 -59 26 -19 50 -34 53
-34 4 0 29 47 56 104 44 94 54 108 109 150 34 26 61 53 61 61 0 27 -56 67
-190 133 -90 45 -152 84 -190 117 -89 82 -110 95 -149 95 -20 0 -51 -10 -68
-21z"/>
<path d="M121 1444 c-26 -22 -31 -33 -31 -71 0 -62 98 -359 113 -344 20 20 83
12 199 -25 110 -36 117 -36 283 -38 141 -1 175 -4 202 -18 42 -23 43 -23 43
10 0 41 -26 122 -57 178 -37 68 -156 183 -230 222 -120 63 -303 112 -422 112
-60 0 -74 -3 -100 -26z"/>
<path d="M2070 1043 c-26 -10 -71 -57 -91 -96 -11 -21 -45 -104 -76 -185 -31
-81 -71 -171 -90 -201 l-35 -54 17 -43 c9 -24 21 -44 27 -44 15 0 154 143 210
215 67 88 200 323 196 349 -6 39 -108 77 -158 59z"/>
<path d="M233 965 c12 -71 117 -253 194 -336 44 -48 46 -48 62 -28 12 15 50
27 156 48 121 24 153 35 238 79 53 29 107 52 120 52 18 1 11 11 -42 61 -86 80
-124 91 -312 87 -142 -2 -145 -2 -257 35 -63 20 -125 37 -139 37 -24 0 -25 -3
-20 -35z"/>
<path d="M2266 964 c-10 -38 -150 -278 -204 -349 -26 -33 -86 -99 -134 -147
-74 -74 -84 -89 -71 -99 12 -10 19 -10 36 0 56 34 174 131 241 197 73 73 266
325 266 349 0 14 -36 48 -67 64 -37 19 -60 14 -67 -15z"/>
<path d="M2312 722 c-99 -138 -256 -291 -382 -373 -22 -14 -23 -19 -12 -43
l12 -26 52 21 c83 32 200 97 270 149 98 74 270 256 266 282 -4 27 -64 76 -103
84 -29 5 -34 1 -103 -94z"/>
<path d="M995 737 c-22 -8 -80 -35 -130 -60 -75 -39 -110 -50 -210 -67 -66
-12 -126 -27 -134 -35 -21 -21 17 -66 117 -140 296 -219 619 -328 874 -296
142 18 356 97 371 135 4 10 -9 28 -40 53 -33 27 -55 58 -78 109 -54 117 -137
172 -315 209 -19 4 -86 27 -149 52 -130 51 -232 64 -306 40z"/>
</g>
</svg>
