<?xml version="1.0" encoding="UTF-8" standalone="no"?>
<!-- Created with Inkscape (http://www.inkscape.org/) -->

<svg
   xmlns:dc="http://purl.org/dc/elements/1.1/"
   xmlns:cc="http://creativecommons.org/ns#"
   xmlns:rdf="http://www.w3.org/1999/02/22-rdf-syntax-ns#"
   xmlns:svg="http://www.w3.org/2000/svg"
   xmlns="http://www.w3.org/2000/svg"
   version="1.1"
   width="42.181999"
   height="23.303513"
   id="svg3004"
   xml:space="preserve"><metadata
     id="metadata3010"><rdf:RDF><cc:Work
         rdf:about=""><dc:format>image/svg+xml</dc:format><dc:type
           rdf:resource="http://purl.org/dc/dcmitype/StillImage" /><dc:title></dc:title></cc:Work></rdf:RDF></metadata><defs
     id="defs3008"><clipPath
       id="clipPath3024"><path
         d="m 30.47527,15.3842 -30.5456,0 0,-15.44281 30.5456,0 0,15.44281 z"
         id="path3026" /></clipPath></defs><g
     transform="matrix(1.25,0,0,-1.25,2.0004125,21.30525)"
     id="g3012"><g
       transform="translate(72,-56.56)"
       id="g3014"><g
         transform="translate(-71.93,56.62)"
         id="g3016"><path
           d="M 20.11848,6.89888 C 19.7164,2.47513 12.67772,-0.34016 7.44913,0.93312 2.22057,2.20705 0.34344,6.76547 0.67854,10.04993 c 0.33509,3.28448 3.41849,4.96051 3.41849,4.96051 0,0 0.13405,0.40272 -0.26803,0.33571 C 3.42686,15.27911 2.95773,15.01044 2.35458,14.47371 1.75145,13.93817 -0.7294,11.25687 0.20943,7.36862 1.2165,3.19647 4.23108,1.06775 7.6502,0.32997 c 3.4185,-0.73717 6.32584,-0.24737 9.58593,1.54201 3.41852,1.87707 3.35149,4.69244 3.35149,5.09452 0,0.40212 -0.46914,-0.06762 -0.46914,-0.06762 z"
           id="path3028"
           style="fill:#000000;fill-opacity:1;fill-rule:nonzero;stroke:#000000;stroke-width:0.3985;stroke-linecap:butt;stroke-linejoin:miter;stroke-miterlimit:10;stroke-opacity:1;stroke-dasharray:none" /><path
           d="M 30.17294,8.91063 C 29.1683,12.06046 25.34709,11.86002 23.2019,10.98878 21.05673,10.11696 20.31953,8.91063 17.83928,8.84302 15.35963,8.77599 12.47667,11.726 11.00168,12.19511 9.5279,12.66423 8.65546,11.99406 8.65546,11.99406 c 0.20103,2.07752 3.88884,2.88236 6.70417,2.14516 2.90004,-0.75912 4.28974,-3.28445 4.49079,-4.02226 0.20105,-0.7366 0.67018,-0.20106 0.67018,-0.20106 -0.8042,3.68717 -4.5584,5.16157 -7.23909,5.22859 -2.68195,0.067 -4.89352,-1.54142 -5.16283,-2.81597 C 7.85126,11.0552 7.44913,8.97705 10.12985,7.2346 c 2.68131,-1.74305 6.16742,-0.2681 7.64243,0.4027 1.47499,0.66957 1.47499,0.19983 1.47499,0.19983 -2.01114,-1.67482 -6.56955,-3.0828 -9.51955,-1.67482 -2.94877,1.40796 -3.01576,5.22796 -3.01576,5.22796 0,0 0.20104,1.00589 -0.80484,0.73781 C 4.20734,11.6748 3.15942,11.12224 3.36046,8.30687 3.56152,5.49155 7.11406,2.3411 12.20859,3.27933 c 5.09396,0.93886 8.17798,4.42439 8.78174,4.96112 0.60316,0.53554 3.8206,3.48555 6.43492,2.54728 C 30.04013,9.84888 29.8391,7.6373 29.1683,6.56442 28.49751,5.49155 27.15717,5.49155 26.487,6.43037 25.81621,7.36862 26.8891,8.0388 26.8891,8.0388 26.28595,8.97705 24.3412,8.57555 24.07376,6.76547 23.80507,4.95538 25.34709,4.01714 26.8891,4.01714 c 1.54199,0 4.29033,1.74306 3.28384,4.89349 z"
           id="path3030"
           style="fill:#000000;fill-opacity:1;fill-rule:nonzero;stroke:#000000;stroke-width:0.3985;stroke-linecap:butt;stroke-linejoin:miter;stroke-miterlimit:10;stroke-opacity:1;stroke-dasharray:none" /></g></g></g></svg>