<?xml version="1.0" encoding="UTF-8" standalone="no"?>
<!-- Created with Inkscape (http://www.inkscape.org/) -->

<svg
   xmlns:dc="http://purl.org/dc/elements/1.1/"
   xmlns:cc="http://creativecommons.org/ns#"
   xmlns:rdf="http://www.w3.org/1999/02/22-rdf-syntax-ns#"
   xmlns:svg="http://www.w3.org/2000/svg"
   xmlns="http://www.w3.org/2000/svg"
   xmlns:sodipodi="http://sodipodi.sourceforge.net/DTD/sodipodi-0.dtd"
   xmlns:inkscape="http://www.inkscape.org/namespaces/inkscape"
   width="130"
   height="130"
   id="svg3278"
   version="1.1"
   inkscape:version="0.48.4 r9939"
   sodipodi:docname="favicon_no-edges.svg"
   inkscape:export-filename="/home/baboso/work/cpran/images/favsource.png"
   inkscape:export-xdpi="180"
   inkscape:export-ydpi="180">
  <defs
     id="defs3280" />
  <sodipodi:namedview
     id="base"
     pagecolor="#ffffff"
     bordercolor="#666666"
     borderopacity="1.0"
     inkscape:pageopacity="0.0"
     inkscape:pageshadow="2"
     inkscape:zoom="1.4"
     inkscape:cx="63.777419"
     inkscape:cy="-34.114566"
     inkscape:document-units="px"
     inkscape:current-layer="layer1"
     showgrid="false"
     fit-margin-top="0"
     fit-margin-left="0"
     fit-margin-right="0"
     fit-margin-bottom="0"
     inkscape:window-width="1024"
     inkscape:window-height="1260"
     inkscape:window-x="-2"
     inkscape:window-y="-3"
     inkscape:window-maximized="1" />
  <metadata
     id="metadata3283">
    <rdf:RDF>
      <cc:Work
         rdf:about="">
        <dc:format>image/svg+xml</dc:format>
        <dc:type
           rdf:resource="http://purl.org/dc/dcmitype/StillImage" />
        <dc:title></dc:title>
      </cc:Work>
    </rdf:RDF>
  </metadata>
  <g
     inkscape:label="Layer 1"
     inkscape:groupmode="layer"
     id="layer1"
     transform="translate(-294.96454,-91.006607)">
    <path
       style="fill:#ffffff;fill-opacity:1;stroke:none"
       d="M 113.28125 80.125 C 113.29441 80.176568 113.30194 80.229088 113.3125 80.28125 C 113.53899 81.40009 113.20222 82.49563 112.6875 83.5625 C 111.65806 85.69624 109.84132 87.90014 108.78125 90.1875 C 105.28051 97.741228 98.788388 104.82445 92.5625 110.3125 C 92.819947 110.55046 93.095342 110.7882 93.40625 111.03125 C 93.71508 111.27267 94.04944 111.52487 94.375 111.78125 C 101.68212 106.86598 109.99921 99.93272 114.59375 92.3125 C 116.06208 89.87719 118.16747 87.78565 119.25 86.0625 C 119.79126 85.20092 120.0483 84.46839 120 83.90625 C 119.9517 83.3441 119.66416 82.78354 118.65625 82.09375 C 116.6434 80.71618 114.94002 80.1545 113.53125 80.125 C 113.44483 80.123187 113.36606 80.120439 113.28125 80.125 z "
       id="path4121"
       transform="translate(294.96454,91.006607)" />
    <path
       style="fill:#ffffff;fill-opacity:1;stroke:none;stroke-width:1.98254489999999994;stroke-linecap:round;stroke-miterlimit:4;stroke-opacity:1;stroke-dasharray:none;stroke-dashoffset:0"
       d="M 12.0625 79.78125 C 11.780382 79.8057 11.584895 79.873085 11.5 79.9375 C 11.3302 80.06633 11.14311 80.33583 11.3125 81.375 C 11.65129 83.45334 13.68233 87.79762 18.21875 94.96875 C 19.213242 96.540838 21.220607 98.785181 23.65625 101.125 C 23.702718 100.92783 23.778472 100.74269 23.875 100.5625 C 24.37484 99.62943 25.31557 99.12447 26.375 98.75 C 28.49386 98.00105 31.43636 97.72687 34.3125 97.28125 C 37.18864 96.83563 39.98727 96.22172 41.5 95.15625 C 44.898597 92.762499 48.073018 91.471406 51 90.90625 C 48.56011 88.696799 47.124713 86.474733 44.6875 85.0625 C 42.04444 83.53099 38.0149 82.71728 29.78125 83.875 C 27.19349 84.23886 24.11533 83.30539 21.09375 82.28125 C 18.07217 81.25711 15.08404 80.1177 13.1875 79.84375 C 12.713365 79.775235 12.344618 79.7568 12.0625 79.78125 z "
       transform="translate(294.96454,91.006607)"
       id="path4077" />
    <path
       style="fill:#ffffff;fill-opacity:1;stroke:none;stroke-width:1.99215746000000005;stroke-linecap:round;stroke-miterlimit:4;stroke-opacity:1;stroke-dasharray:none;stroke-dashoffset:0"
       d="M 23.5625 30.78125 C 22.939456 30.843911 22.26073 31.060107 21.53125 31.4375 C 19.58597 32.44388 17.16536 34.84375 14.3125 39.40625 C 12.69397 41.99471 10.32944 46.9503 8.40625 51.90625 C 8.0593945 52.800077 7.7494634 53.679713 7.4375 54.5625 C 8.024685 54.414032 8.6322897 54.313217 9.25 54.25 C 14.27477 53.73577 20.43491 55.54903 23.28125 56.25 C 30.044053 57.915479 35.271363 60.863849 39.1875 64.3125 C 40.898533 61.510153 42.389702 58.526731 43.5 55.4375 C 44.17183 53.56823 45.86952 52.39982 47.375 51.375 C 48.88048 50.35018 50.21713 49.38953 50.5625 48.71875 C 50.73524 48.38336 50.78583 48.191 50.59375 47.75 C 50.40167 47.309 49.87804 46.6583 48.84375 45.84375 C 46.77517 44.21464 42.7373 42.01332 35.90625 39.09375 C 34.09696 38.32047 32.58651 36.79051 31.0625 35.28125 C 29.53849 33.77199 28.01555 32.27347 26.46875 31.46875 C 25.69535 31.06639 24.95785 30.80955 24.15625 30.78125 C 23.95585 30.774185 23.770181 30.760363 23.5625 30.78125 z "
       transform="translate(294.96454,91.006607)"
       id="path4052" />
    <path
       style="fill:#ffffff;fill-opacity:1;stroke:none;stroke-width:1.87548636999999996;stroke-linecap:round;stroke-miterlimit:4;stroke-opacity:1;stroke-dasharray:none;stroke-dashoffset:0"
       d="M 75.5 6.59375 C 73.82346 6.639101 71.85423 6.827925 69.5625 7.15625 C 66.72101 7.563333 62.61525 8.360582 58.84375 9.5625 C 55.57254 10.60498 52.79311 12.01908 51.125 13.53125 C 51.36023 13.70215 51.5974 13.86598 51.8125 14.0625 C 51.97324 14.20939 52.13001 14.34348 52.25 14.46875 C 52.32625 14.54835 52.356625 14.6225 52.375 14.65625 C 52.387375 14.6698 52.403734 14.6901 52.40625 14.6875 C 52.546566 14.836384 52.717933 14.988769 52.875 15.1875 C 53.00306 15.349445 53.058785 15.450017 53.0625 15.46875 C 53.176652 15.610875 53.281041 15.750526 53.40625 15.9375 C 53.51876 16.1051 53.66525 16.31699 53.8125 16.5625 C 53.9186 16.7395 53.93615 16.8014 53.90625 16.75 C 54.13115 17.13658 54.3586 17.55781 54.5625 17.96875 C 54.64636 18.13845 54.6982 18.2658 54.75 18.375 C 54.89984 18.68997 55.03837 19.00828 55.1875 19.34375 C 55.56574 20.19838 55.92655 21.0157 56.28125 21.78125 C 56.33975 21.9073 56.373 21.995 56.375 22 C 56.53217 22.33181 56.69233 22.69255 56.84375 22.96875 C 56.91614 23.1 57.02473 23.21181 57.125 23.375 C 57.1721 23.45185 57.1763 23.51365 57.1875 23.53125 C 57.31558 23.73117 57.45837 23.92824 57.5625 24.0625 C 58.17761 24.85553 58.71668 25.58717 59.25 26.3125 C 59.65606 26.86476 60.11095 27.44483 60.5 28 C 60.59524 28.13605 60.69335 28.27905 60.78125 28.40625 C 61.10108 28.86905 61.39915 29.34274 61.6875 29.78125 C 61.82774 29.99474 61.95473 30.20693 62.0625 30.375 C 62.46414 31.00187 62.82588 31.59186 63.15625 32.15625 C 63.49301 32.73155 63.81295 33.27519 64.09375 33.8125 C 64.3081 34.22266 64.51802 34.6317 64.71875 35.0625 C 64.77205 35.17688 64.81315 35.3074 64.84375 35.375 C 64.91721 35.53761 64.99565 35.6676 65.03125 35.75 C 65.21722 36.18104 65.35767 36.60259 65.5 37 C 65.62622 37.35242 65.77097 37.72546 65.875 38.09375 C 65.98584 38.48735 66.08845 38.88285 66.15625 39.25 C 66.159723 39.269045 66.153169 39.264159 66.15625 39.28125 C 66.22935 39.68407 66.25965 40.04003 66.28125 40.40625 C 66.29775 40.68562 66.28925 40.93663 66.28125 41.15625 C 66.27515 41.33049 66.2796 41.54414 66.25 41.78125 C 66.2406 41.85349 66.23525 41.93465 66.21875 42.03125 C 66.19745 42.15966 66.1512 42.29192 66.125 42.40625 C 66.1009 42.50831 66.09305 42.65164 66.03125 42.84375 C 65.98551 42.98765 65.9287 43.11838 65.875 43.25 C 65.83239 43.35342 65.77775 43.47405 65.71875 43.59375 C 65.62859 43.7779 65.5637 43.92899 65.5 44.03125 C 67.51133 44.48931 69.73321 44.79415 72.40625 44.78125 C 74.34612 44.77189 76.34643 45.1214 78.125 45.1875 C 79.90357 45.25363 81.35608 45.05741 82.4375 44.1875 C 83.51891 43.31759 84.40738 41.63638 84.65625 38.3125 C 84.90512 34.98861 84.50997 30.09697 83.125 23.0625 C 82.78398 21.33041 83.20616 19.43599 83.65625 17.5 C 84.10634 15.56401 84.5871 13.59459 84.625 11.9375 C 84.66286 10.2804 84.3196 9.032243 83.09375 8.09375 C 81.8679 7.155256 79.55593 6.484036 75.5 6.59375 z "
       id="path4015"
       transform="translate(294.96454,91.006607)" />
    <path
       style="fill:#ffffff;fill-opacity:1;stroke:none;stroke-width:2.16539525999999993;stroke-linecap:round;stroke-miterlimit:4;stroke-opacity:1;stroke-dasharray:none;stroke-dashoffset:0"
       d="M 85.78125 8.46875 C 86.327689 9.5485783 86.527609 10.760505 86.5 11.96875 C 86.45461 13.95556 85.91066 16.00546 85.46875 17.90625 C 85.0268 19.80703 84.71376 21.5511 84.9375 22.6875 C 86.34059 29.81404 86.80146 34.85972 86.53125 38.46875 C 86.26103 42.07777 85.23658 44.32861 83.625 45.625 C 83.55402 45.682097 83.4788 45.728285 83.40625 45.78125 C 85.822427 47.536493 88.730767 49.248981 92.28125 50.90625 C 101.03043 54.99013 110.54962 65.56633 116 36.65625 C 117.21825 30.19438 136.83232 24.03504 105.65625 13.28125 C 100.60222 11.537928 92.325193 9.1454186 85.78125 8.46875 z "
       id="path3138"
       transform="translate(294.96454,91.006607)" />
    <path
       style="fill:#ffffff;fill-opacity:1;stroke:none"
       d="m 119.46875,88.90625 c -0.0491,1e-4 -0.15105,0.02425 -0.21875,0.03125 -1.10042,1.37691 -2.33011,2.77615 -3.21875,4.25 -3.85891,6.40016 -10.06244,12.16332 -16.1875,16.78125 -0.0225,0.0204 -0.0399,0.0424 -0.0625,0.0625 -0.39313,0.35062 -0.80139,0.67579 -1.1875,0.96875 -0.85371,0.64774 -1.81523,1.26285 -2.8125,1.875 -0.0077,0.005 -0.02325,-0.005 -0.03125,0 -0.0397,0.0271 -0.0843,0.0653 -0.125,0.0937 0.3684,0.39643 0.76352,0.75178 1.03125,1.25 0.24184,0.45004 0.37185,0.97619 0.40625,1.53125 7.47427,-2.77215 16.45521,-7.27407 22.46875,-14.625 1.81327,-2.21652 4.20543,-3.99744 5.53125,-5.5625 0.66291,-0.78253 1.0286,-1.47126 1.0625,-2.03125 0.0339,-0.56 -0.16782,-1.15886 -1.0625,-1.96875 -2.14583,-1.94247 -3.97895,-2.65925 -5.59375,-2.65625 z"
       id="path4105-2"
       inkscape:connector-curvature="0"
       sodipodi:nodetypes="ccsccscccscsscsc"
       transform="translate(294.96454,91.006607)" />
    <path
       style="fill:#ffffff;fill-opacity:1;stroke:none"
       d="m 105.34375,77.4375 c -0.18599,-0.003 -0.35523,0.01786 -0.53125,0.03125 -1.89468,0.14412 -3.31516,1.19218 -4.625,2.96875 -1.30984,1.77656 -2.43617,4.27724 -3.46875,7.03125 -2.06517,5.508 -3.83327,12.03416 -7.25,16.28125 -0.08857,0.1101 -0.1595,0.20915 -0.25,0.3125 0.87039,1.42034 1.6497,2.96585 2.21875,4.90625 6.11456,-5.39427 12.45355,-12.2884 15.78125,-19.46875 1.18975,-2.5672 3.06175,-4.87231 3.9375,-6.6875 0.4379,-0.9076 0.61291,-1.62974 0.5,-2.1875 -0.11291,-0.55777 -0.48152,-1.09665 -1.5625,-1.6875 -1.88421,-1.029893 -3.44804,-1.479328 -4.75,-1.5 z"
       id="path4129-7"
       transform="translate(294.96454,91.006607)"
       inkscape:connector-curvature="0"
       sodipodi:nodetypes="sssscccscsss" />
    <path
       style="fill:#ffffff;fill-opacity:1;stroke:none;stroke-width:1.78371012000000007;stroke-linecap:round;stroke-miterlimit:4;stroke-opacity:1;stroke-dasharray:none;stroke-dashoffset:0"
       d="M 46.125 13.90625 C 43.5039 14.00115 39.67939 15.3267 34.25 18.8125 C 31.02654 20.88203 25.7153 24.60331 22.46875 28.125 C 23.05804 28.0117 23.65416 27.9195 24.21875 27.9375 C 25.50174 27.97851 26.72375 28.33983 27.8125 28.90625 C 29.9305 30.00814 31.58115 31.72078 33.09375 33.21875 C 34.60563 34.716 36.04546 36.01617 37.03125 36.4375 C 43.96283 39.40004 48.13989 41.6366 50.625 43.59375 L 50.65625 43.625 C 51.87549 44.59029 52.73898 45.5235 53.21875 46.625 C 53.39415 47.02768 53.4567 47.42907 53.5 47.84375 C 53.77385 47.72629 54.03404 47.62701 54.3125 47.5 C 55.99658 46.73183 58.00498 46.28322 59.78125 45.6875 C 61.55752 45.09177 63.04505 44.36959 63.8125 43.25 C 64.5799 42.13041 64.8199 40.51341 63.78125 37.625 C 62.7426 34.73659 60.37444 30.67511 56.09375 25.15625 C 54.52118 23.12881 53.74253 20.17249 52.40625 17.8125 C 51.73811 16.6325 50.9513 15.6291 49.96875 14.9375 C 48.9862 14.24589 47.80059 13.84555 46.125 13.90625 z "
       id="path4133-0"
       transform="translate(294.96454,91.006607)" />
    <path
       style="fill:#ffffff;fill-opacity:1;stroke:none;stroke-width:2.12887239000000017;stroke-linecap:round;stroke-miterlimit:4;stroke-opacity:1;stroke-dasharray:none;stroke-dashoffset:0"
       d="M 11.15625 56.28125 C 10.571791 56.276923 10.008706 56.319741 9.46875 56.375 C 7.30892 56.59604 5.73841 57.26829 4.9375 58.625 C 4.13659 59.98171 3.95977 62.33939 5.34375 66.25 C 6.3849379 69.192008 7.8641747 74.356753 9.59375 79.28125 C 9.7595533 78.918354 9.9946071 78.616209 10.3125 78.375 C 10.76129 78.03447 11.24419 77.8749 11.78125 77.8125 C 12.31831 77.75007 12.88285 77.7904 13.46875 77.875 C 15.81235 78.21353 18.78946 79.4028 21.75 80.40625 C 24.71054 81.4097 27.65543 82.16562 29.5 81.90625 C 37.95208 80.71782 42.51672 81.52456 45.65625 83.34375 C 46.048691 83.571149 46.433498 83.81239 46.78125 84.0625 C 46.778979 83.168629 46.723212 82.216931 46.59375 81.125 C 45.78142 74.27342 39.12487 62.33745 22.78125 58.3125 C 20.202048 57.67732 15.247465 56.311541 11.15625 56.28125 z "
       id="path4137-5"
       transform="translate(294.96454,91.006607)" />
    <path
       style="fill:#ffffff;fill-opacity:1;stroke:none;stroke-width:1.87836015000000001;stroke-linecap:round;stroke-miterlimit:4;stroke-opacity:1;stroke-dasharray:none;stroke-dashoffset:0"
       d="M 53.96875 92.34375 C 50.617649 92.487348 46.853141 93.665451 42.5625 96.6875 C 40.50236 98.13853 37.53231 98.70096 34.59375 99.15625 C 31.65519 99.61154 28.71729 99.92424 27 100.53125 C 26.14136 100.83475 25.66352 101.22184 25.53125 101.46875 C 25.39898 101.71566 25.37826 102.0277 25.875 102.84375 C 26.86848 104.47585 30.05315 107.31747 36.40625 111.53125 C 41.77502 115.09218 62.92309 128.29084 83.625 121.5 C 88.77533 119.81054 91.7687 118.43131 93.21875 117.375 C 93.94377 116.84685 94.24795 116.40955 94.34375 116.15625 C 94.43959 115.90295 94.40235 115.7835 94.25 115.5 C 93.94531 114.93299 92.88018 114.06419 91.71875 113.15625 C 90.55732 112.24831 89.26039 111.27725 88.8125 109.75 C 87.41758 104.99345 85.28122 102.54142 82.28125 100.875 C 79.28128 99.20858 75.34004 98.37799 70.53125 97.1875 C 66.3086 96.14212 61.54075 92.60139 55.375 92.34375 C 54.912569 92.324427 54.447479 92.323236 53.96875 92.34375 z "
       transform="translate(294.96454,91.006607)"
       id="path4143-7" />
  </g>
</svg>
