<?xml version="1.0" encoding="UTF-8" standalone="no"?>
<!-- Created with Inkscape (http://www.inkscape.org/) -->

<svg
   xmlns:dc="http://purl.org/dc/elements/1.1/"
   xmlns:cc="http://creativecommons.org/ns#"
   xmlns:rdf="http://www.w3.org/1999/02/22-rdf-syntax-ns#"
   xmlns:svg="http://www.w3.org/2000/svg"
   xmlns="http://www.w3.org/2000/svg"
   xmlns:sodipodi="http://sodipodi.sourceforge.net/DTD/sodipodi-0.dtd"
   xmlns:inkscape="http://www.inkscape.org/namespaces/inkscape"
   width="130"
   height="130"
   id="svg3278"
   version="1.1"
   inkscape:version="0.48.4 r9939"
   sodipodi:docname="favicon_no-edges.svg"
   inkscape:export-filename="/home/baboso/work/cpran/images/favsource.png"
   inkscape:export-xdpi="180"
   inkscape:export-ydpi="180">
  <defs
     id="defs3280" />
  <sodipodi:namedview
     id="base"
     pagecolor="#ffffff"
     bordercolor="#666666"
     borderopacity="1.0"
     inkscape:pageopacity="0.0"
     inkscape:pageshadow="2"
     inkscape:zoom="1.4"
     inkscape:cx="63.777419"
     inkscape:cy="-34.114566"
     inkscape:document-units="px"
     inkscape:current-layer="layer1"
     showgrid="false"
     fit-margin-top="0"
     fit-margin-left="0"
     fit-margin-right="0"
     fit-margin-bottom="0"
     inkscape:window-width="1024"
     inkscape:window-height="1260"
     inkscape:window-x="-2"
     inkscape:window-y="-3"
     inkscape:window-maximized="1" />
  <metadata
     id="metadata3283">
    <rdf:RDF>
      <cc:Work
         rdf:about="">
        <dc:format>image/svg+xml</dc:format>
        <dc:type
           rdf:resource="http://purl.org/dc/dcmitype/StillImage" />
        <dc:title></dc:title>
      </cc:Work>
    </rdf:RDF>
  </metadata>
  <g
     inkscape:label="Layer 1"
     inkscape:groupmode="layer"
     id="layer1"
     transform="translate(-294.96454,-91.006607)">
    <path
       style="fill:#dc322f;fill-opacity:1;stroke:#ffffff;stroke-width:2.16539526;stroke-linecap:round;stroke-miterlimit:4;stroke-opacity:1;stroke-dasharray:none;stroke-dashoffset:0"
       d="M 84.65625 8.34375 C 87.335112 12.117804 83.258528 18.950212 84.03125 22.875 C 86.962203 37.761767 85.621666 43.301714 82.625 45.21875 C 85.17651 47.169827 88.353667 49.072961 92.28125 50.90625 C 101.03043 54.99013 110.54962 65.56633 116 36.65625 C 117.21825 30.19438 136.83232 24.03504 105.65625 13.28125 C 100.31241 11.437962 91.345811 8.83957 84.65625 8.34375 z "
       transform="translate(294.96454,91.006607)"
       id="path3138" />
    <path
       style="fill:#dc322f;fill-opacity:1;stroke:#ffffff;stroke-width:1.70394874;stroke-linecap:round;stroke-miterlimit:4;stroke-opacity:1;stroke-dasharray:none;stroke-dashoffset:0"
       d="m 393.05361,201.32813 c 9.90194,-7.51305 15.53986,-30.2338 27.53299,-19.37731 4.05434,3.67009 -2.00019,6.51937 -5.43559,10.71876 -10.02714,12.25712 -27.997,16.86126 -34.04411,18.33086 -28.53067,6.93367 0.90865,-1.29725 11.94671,-9.67231 z"
       id="path4105-2"
       inkscape:connector-curvature="0"
       sodipodi:nodetypes="sssss" />
    <path
       inkscape:transform-center-y="-17.629161"
       inkscape:transform-center-x="-14.829859"
       sodipodi:nodetypes="sssss"
       inkscape:connector-curvature="0"
       id="path4107-6"
       d="m 389.70401,195.18904 c 8.68502,-8.72636 10.90316,-31.98232 24.37295,-22.76379 4.55354,3.11638 -1.01485,6.72226 -3.79251,11.32917 -8.10745,13.44654 -27.23665,24.5651 -33.00169,26.80199 -27.19976,10.55378 2.73976,-5.63978 12.42125,-15.36737 z"
       style="fill:#dc322f;fill-opacity:1;stroke:#ffffff;stroke-width:1.70394874;stroke-linecap:round;stroke-miterlimit:4;stroke-opacity:1;stroke-dasharray:none;stroke-dashoffset:0" />
    <path
       style="fill:#dc322f;fill-opacity:1;stroke:#ffffff;stroke-width:1.70394874;stroke-linecap:round;stroke-miterlimit:4;stroke-opacity:1;stroke-dasharray:none;stroke-dashoffset:0"
       d="m 383.77537,194.21903 c 7.66384,-9.52634 7.29074,-32.89163 21.69839,-25.01657 4.87059,2.6622 -0.26351,6.78997 -2.51333,11.64453 -6.56672,14.16937 -24.34462,27.08653 -29.82586,29.8705 -25.86084,13.13491 2.09765,-5.8791 10.6408,-16.49846 z"
       id="path4129-7"
       inkscape:connector-curvature="0"
       sodipodi:nodetypes="sssss"
       inkscape:transform-center-x="-13.077886"
       inkscape:transform-center-y="-18.847415" />
    <path
       sodipodi:nodetypes="sssss"
       inkscape:connector-curvature="0"
       id="path4131-4"
       d="m 378.99385,113.86767 c 5.57613,28.32203 -4.33794,22.83582 -11.62014,22.87094 -22.95304,0.11064 -21.74122,-18.75997 -23.83654,-28.69837 -1.33159,-6.31592 13.67691,-9.79876 20.86643,-10.82876 24.72756,-3.5426 13.3439,10.32576 14.59025,16.65619 z"
       style="fill:#dc322f;fill-opacity:1;stroke:#ffffff;stroke-width:1.87548637;stroke-linecap:round;stroke-miterlimit:4;stroke-opacity:1;stroke-dasharray:none;stroke-dashoffset:0" />
    <path
       style="fill:#dc322f;fill-opacity:1;stroke:#ffffff;stroke-width:1.78371012;stroke-linecap:round;stroke-miterlimit:4;stroke-opacity:1;stroke-dasharray:none;stroke-dashoffset:0"
       d="m 351.78263,115.62482 c 17.24657,22.23509 4.06558,20.85282 -2.13777,23.68238 -19.55259,8.91862 -29.01941,-5.3149 -35.18974,-13.06406 -3.92127,-4.92464 8.59843,-13.53423 14.28407,-17.18454 19.55516,-12.55487 19.18855,1.59631 23.04344,6.56622 z"
       id="path4133-0"
       inkscape:connector-curvature="0"
       sodipodi:nodetypes="sssss" />
    <path
       sodipodi:nodetypes="sssss"
       inkscape:connector-curvature="0"
       id="path4135-2"
       d="m 331.27191,129.1722 c 27.46303,11.73762 10.2428,11.76155 8.14085,17.60991 -9.06073,25.21005 -40.73381,43.77949 -40.46122,8.69962 0.045,-5.78862 6.09999,-20.20594 9.47582,-25.60479 11.61079,-18.56882 16.70612,-3.32829 22.84455,-0.70474 z"
       style="fill:#dc322f;fill-opacity:1;stroke:#ffffff;stroke-width:1.99215746;stroke-linecap:round;stroke-miterlimit:4;stroke-opacity:1;stroke-dasharray:none;stroke-dashoffset:0" />
    <path
       style="fill:#dc322f;fill-opacity:1;stroke:#ffffff;stroke-width:2.12887239;stroke-linecap:round;stroke-miterlimit:4;stroke-opacity:1;stroke-dasharray:none;stroke-dashoffset:0"
       d="m 318.00317,148.27502 c 16.75065,4.12519 23.73694,16.34093 24.61115,23.71444 2.75547,23.24084 -21.6513,7.64278 -30.27895,11.14363 -5.48293,2.22481 -10.57861,-18.57164 -13.04186,-25.53189 -5.75235,-16.25403 12.91566,-10.75307 18.70966,-9.32618 z"
       id="path4137-5"
       inkscape:connector-curvature="0"
       sodipodi:nodetypes="sssss" />
    <path
       sodipodi:nodetypes="ssssss"
       inkscape:connector-curvature="0"
       id="path4139-6"
       d="m 324.60896,173.89872 c 16.68573,-2.34615 17.20159,3.26084 22.61451,7.79582 8.36843,7.01113 4.17088,9.09508 1.05135,12.46358 -3.15965,3.41183 -5.33301,8.07632 -11.18763,10.17465 -4.83325,1.73226 -20.88635,-11.73452 -24.75199,-17.84528 -18.23831,-28.83096 3.4091,-11.34231 12.27376,-12.58877 z"
       style="fill:#dc322f;fill-opacity:1;stroke:#ffffff;stroke-width:1.9825449;stroke-linecap:round;stroke-miterlimit:4;stroke-opacity:1;stroke-dasharray:none;stroke-dashoffset:0" />
    <path
       style="fill:#dc322f;fill-opacity:1;stroke:#ffffff;stroke-width:1.87836015;stroke-linecap:round;stroke-miterlimit:4;stroke-opacity:1;stroke-dasharray:none;stroke-dashoffset:0"
       d="m 336.99547,186.91047 c 13.45027,-9.4735 22.52532,-1.16244 28.72102,0.3714 9.57864,2.37134 16.0791,3.32918 18.97126,13.19118 1.3159,4.48708 14.94888,6.1174 -5.81034,12.92703 -21.21959,6.96065 -42.59888,-6.47752 -48.01727,-10.07136 -25.56428,-16.95586 -1.01042,-11.38524 6.13533,-16.41825 z"
       id="path4143-7"
       inkscape:connector-curvature="0"
       sodipodi:nodetypes="ssssss" />
  </g>
</svg>
