<?xml version="1.0" encoding="UTF-8" standalone="no"?>
<!-- Created with Inkscape (http://www.inkscape.org/) -->

<svg
   xmlns:dc="http://purl.org/dc/elements/1.1/"
   xmlns:cc="http://creativecommons.org/ns#"
   xmlns:rdf="http://www.w3.org/1999/02/22-rdf-syntax-ns#"
   xmlns:svg="http://www.w3.org/2000/svg"
   xmlns="http://www.w3.org/2000/svg"
   xmlns:sodipodi="http://sodipodi.sourceforge.net/DTD/sodipodi-0.dtd"
   xmlns:inkscape="http://www.inkscape.org/namespaces/inkscape"
   width="309.10669"
   height="170.71577"
   id="svg3278"
   version="1.1"
   inkscape:version="0.48.4 r9939"
   sodipodi:docname="text_logo.svg"
   inkscape:export-filename="/home/baboso/work/cpran/images/text_logo-small.png"
   inkscape:export-xdpi="116.46"
   inkscape:export-ydpi="116.46">
  <defs
     id="defs3280" />
  <sodipodi:namedview
     id="base"
     pagecolor="#ffffff"
     bordercolor="#666666"
     borderopacity="1.0"
     inkscape:pageopacity="0.0"
     inkscape:pageshadow="2"
     inkscape:zoom="0.98994949"
     inkscape:cx="139.29389"
     inkscape:cy="80.565065"
     inkscape:document-units="px"
     inkscape:current-layer="layer1"
     showgrid="false"
     fit-margin-top="0"
     fit-margin-left="0"
     fit-margin-right="0"
     fit-margin-bottom="0"
     inkscape:window-width="1024"
     inkscape:window-height="1260"
     inkscape:window-x="-2"
     inkscape:window-y="-3"
     inkscape:window-maximized="1" />
  <metadata
     id="metadata3283">
    <rdf:RDF>
      <cc:Work
         rdf:about="">
        <dc:format>image/svg+xml</dc:format>
        <dc:type
           rdf:resource="http://purl.org/dc/dcmitype/StillImage" />
        <dc:title></dc:title>
      </cc:Work>
    </rdf:RDF>
  </metadata>
  <g
     inkscape:label="Layer 1"
     inkscape:groupmode="layer"
     id="layer1"
     transform="translate(-283.85287,-547.28589)">
    <rect
       style="fill:#ffffff;fill-opacity:1;stroke:none"
       id="rect4674"
       width="309.10669"
       height="170.71577"
       x="283.85287"
       y="547.28589" />
    <g
       id="g3093"
       style="fill:#dc322f;fill-opacity:0.49803922">
      <path
         inkscape:connector-curvature="0"
         d="m 388.42473,594.77506 c 6.80455,0.98826 13.58722,2.10997 20.37306,3.20837 7.18773,1.13246 14.36588,2.45051 21.38352,4.33524 3.84964,1.0339 6.3062,1.89028 10.06894,3.11904 8.34065,2.81865 16.21879,6.58607 23.81058,10.85224 1.04284,0.58477 2.09033,1.16228 3.12852,1.75431 2.91318,1.66124 5.78418,3.37101 8.78386,4.89542 2.46694,1.25369 3.2097,1.55511 5.72837,2.69357 5.53051,2.25086 11.0603,4.49164 16.56032,6.80975 5.25933,2.43993 10.97099,3.5909 16.72665,4.36977 5.07654,0.45579 10.2013,0.97679 15.3062,0.82209 0.98219,-0.0298 1.96027,-0.12494 2.94042,-0.18741 5.30474,-0.56616 9.04725,-2.47995 13.11257,-5.52951 1.66318,-1.2526 3.09343,-2.72142 4.49422,-4.21769 0.73301,-0.78158 1.92524,0.19559 1.19224,0.97718 l 0,0 c -1.46385,1.55835 -2.95636,3.08995 -4.69249,4.39485 -4.39205,3.27782 -8.2707,5.22527 -13.98707,5.84715 -1.01693,0.0636 -2.03178,0.16041 -3.05068,0.19077 -5.1797,0.15426 -10.37922,-0.37123 -15.52984,-0.83745 -5.90156,-0.80204 -11.75775,-1.98766 -17.15222,-4.48587 -5.51312,-2.32365 -11.05658,-4.5685 -16.5993,-6.82676 -2.56181,-1.15867 -3.30886,-1.46168 -5.81836,-2.73761 -3.01164,-1.53123 -5.8949,-3.24705 -8.82,-4.91509 -1.03866,-0.59229 -2.08662,-1.17008 -3.12993,-1.75511 -7.49733,-4.21515 -15.27747,-7.93666 -23.51471,-10.72243 -3.69182,-1.20619 -6.17207,-2.06984 -9.94626,-3.08408 -6.97449,-1.87427 -14.10903,-3.18357 -21.2529,-4.30876 -6.77061,-1.09595 -13.53806,-2.21506 -20.32725,-3.2016 -1.10708,-0.14821 -0.89553,-1.60859 0.21154,-1.46038 z"
         id="path4097-8"
         style="fill:#dc322f;fill-opacity:0.49803922;fill-rule:nonzero;stroke:none" />
      <path
         style="fill:#dc322f;fill-opacity:0.49803922;fill-rule:nonzero;stroke:none"
         id="path4099-3"
         d="m 408.1682,605.12416 c 6.35254,2.51095 12.64887,5.14603 18.95438,7.75928 6.68707,2.73802 13.31618,5.65343 19.64094,9.0805 3.46949,1.87995 5.63198,3.26986 8.96598,5.31851 7.36552,4.63301 14.03301,10.07832 20.29165,15.94084 0.86005,0.80409 1.72648,1.60221 2.58008,2.41225 2.39522,2.27299 4.73682,4.58333 7.25198,6.74372 2.06848,1.7767 2.71124,2.2381 4.86016,3.91512 4.78387,3.44155 9.56963,6.87315 14.30627,10.37281 4.4708,3.5625 9.71885,5.9812 15.10709,8.04986 4.81306,1.60092 9.65593,3.27598 14.65647,4.29265 0.96211,0.1956 1.93742,0.327 2.90611,0.49049 5.30256,0.66422 9.44028,-0.33245 14.18927,-2.35432 1.94421,-0.83197 3.71867,-1.92643 5.47178,-3.05413 0.91699,-0.58878 1.81937,0.62914 0.90238,1.21791 l 0,0 c -1.8306,1.17339 -3.68212,2.3143 -5.71083,3.18026 -5.12623,2.16809 -9.40504,3.16624 -15.12218,2.46186 -1.00469,-0.17081 -2.01616,-0.30901 -3.01411,-0.51244 -5.07312,-1.0342 -9.98742,-2.73066 -14.86977,-4.35861 -5.52395,-2.12443 -10.90335,-4.60966 -15.49022,-8.25946 -4.74784,-3.50798 -9.54584,-6.94664 -14.33964,-10.39815 -2.18549,-1.70643 -2.83194,-2.17029 -4.93599,-3.97827 -2.52503,-2.16973 -4.87692,-4.48871 -7.28196,-6.77101 -0.85394,-0.81039 -1.72084,-1.60891 -2.58126,-2.41337 -6.1802,-5.79154 -12.76459,-11.1701 -20.03816,-15.74762 -3.27104,-2.01062 -5.45463,-3.41297 -8.85601,-5.25668 -6.28551,-3.40706 -12.87458,-6.30405 -19.52094,-9.02503 -6.29134,-2.60739 -12.57357,-5.23647 -18.91163,-7.74225 -1.03684,-0.39635 -0.44867,-1.76106 0.58815,-1.36472 z"
         inkscape:connector-curvature="0" />
      <path
         style="fill:#dc322f;fill-opacity:0.49803922;fill-rule:nonzero;stroke:none"
         id="path4101-4"
         d="m 417.57294,614.61125 c 4.12552,-0.0232 8.2465,0.32791 12.36278,0.58091 5.52724,0.37937 11.08077,1.21208 16.28772,3.08137 0.99922,0.35871 1.9634,0.7987 2.94508,1.19805 4.95542,2.07537 9.07968,5.34642 13.18212,8.59639 2.87319,2.14001 5.63118,4.42334 8.56089,6.49711 0.86913,0.61522 3.76404,2.51604 4.64405,3.09706 5.29379,3.45124 11.29406,5.72268 17.06448,8.34861 6.2793,2.74607 12.43896,5.72225 18.70361,8.49675 0.84601,0.36054 1.68929,0.7269 2.53811,1.08165 1.79848,0.75167 2.86433,1.21426 4.73702,1.77004 2.53681,0.75289 5.13918,1.18782 7.75307,1.6065 3.73895,0.46281 7.5201,0.8797 11.2851,0.51258 2.3026,-0.2245 3.12861,-0.4782 5.37574,-0.97432 3.67635,-0.93262 7.18661,-2.31571 10.68613,-3.69351 1.02636,-0.40401 1.65017,0.9562 0.6238,1.3602 l 0,0 c -3.58044,1.40912 -7.17271,2.82166 -10.93592,3.76953 -2.36939,0.5188 -3.21681,0.7795 -5.64771,1.01111 -3.88476,0.37013 -7.78522,-0.0487 -11.64228,-0.53162 -2.70757,-0.43552 -5.39905,-0.89055 -8.02583,-1.67404 -1.91703,-0.57179 -3.02103,-1.04846 -4.85522,-1.81517 -0.85594,-0.35779 -1.70626,-0.72726 -2.55937,-1.09089 -6.26963,-2.777 -12.43462,-5.75505 -18.71891,-8.50361 -5.84761,-2.66171 -11.92655,-4.96652 -17.28677,-8.4715 -0.96603,-0.63784 -3.77691,-2.48259 -4.71679,-3.14803 -2.94272,-2.08348 -5.71351,-4.37667 -8.59947,-6.52673 -3.98359,-3.15598 -7.97869,-6.34528 -12.78805,-8.36684 -0.93949,-0.38411 -1.86191,-0.80739 -2.81834,-1.15227 -5.07517,-1.83005 -10.49365,-2.63522 -15.88307,-3.00627 -4.05884,-0.24947 -8.1221,-0.59482 -12.18998,-0.57913 -1.11563,0.0455 -1.19762,-1.42839 -0.082,-1.47394 z"
         inkscape:connector-curvature="0" />
      <path
         style="fill:#dc322f;fill-opacity:0.49803922;fill-rule:nonzero;stroke:none"
         id="path4103-1"
         d="m 394.02965,604.08339 c 6.80454,0.98826 13.58721,2.10997 20.37306,3.20838 7.18774,1.13246 14.36587,2.45051 21.3835,4.33523 3.84965,1.0339 6.30621,1.89028 10.06893,3.11904 8.34069,2.81867 16.21879,6.58606 23.81058,10.85223 1.04284,0.58477 2.09033,1.16229 3.12852,1.75431 2.91318,1.66125 5.78423,3.37103 8.78386,4.89543 2.46694,1.25368 3.20975,1.55512 5.72841,2.69358 5.53052,2.25086 11.06031,4.49164 16.56028,6.80973 5.25933,2.43994 10.97108,3.59093 16.72665,4.36977 5.07654,0.45579 10.2014,0.97682 15.3062,0.8221 0.98219,-0.0298 1.96027,-0.12495 2.94042,-0.18742 5.30474,-0.56616 9.04725,-2.47994 13.11257,-5.52951 1.66322,-1.25258 3.09342,-2.72142 4.49427,-4.21767 0.73301,-0.78158 1.92519,0.19558 1.19219,0.97716 l 0,0 c -1.46385,1.55836 -2.95636,3.08995 -4.69249,4.39486 -4.39201,3.27783 -8.27065,5.22528 -13.98707,5.84714 -1.01683,0.0636 -2.03173,0.16043 -3.05068,0.19078 -5.17965,0.15427 -10.37922,-0.37124 -15.52984,-0.83746 -5.90151,-0.80202 -11.75775,-1.98765 -17.15222,-4.48586 -5.51307,-2.32364 -11.05649,-4.56847 -16.5993,-6.82677 -2.56176,-1.15865 -3.30877,-1.46164 -5.81831,-2.73759 -3.01164,-1.53123 -5.8949,-3.24705 -8.82,-4.91509 -1.03861,-0.59228 -2.08662,-1.17008 -3.12993,-1.75511 -7.49729,-4.21513 -15.27752,-7.93668 -23.51475,-10.72245 -3.69178,-1.20617 -6.17208,-2.06984 -9.94626,-3.08407 -6.97447,-1.87426 -14.10901,-3.18356 -21.25288,-4.30876 -6.77061,-1.09595 -13.53806,-2.21505 -20.32726,-3.2016 -1.10707,-0.14821 -0.89553,-1.60858 0.21155,-1.46038 z"
         inkscape:connector-curvature="0" />
      <path
         sodipodi:nodetypes="scccssccss"
         inkscape:connector-curvature="0"
         id="path4145-3"
         d="m 377.06013,605.70867 c -1.85569,-0.8145 -1.47006,1.26982 0.67284,2.76453 8.56635,5.97551 40.30454,26.47547 59.47075,35.80342 0.49829,1.55659 1.72482,2.12829 2.51498,3.275 3.69632,9.17801 14.8878,34.56193 32.77112,59.27823 1.95629,2.70381 3.2053,0.17389 2.00058,-1.9511 -9.75313,-17.2033 -24.43928,-40.31589 -32.23082,-59.20033 -0.53715,-1.48948 -0.16746,-3.10978 -2.70243,-3.75272 -18.17672,-10.24612 -43.79245,-23.45383 -61.55788,-35.68603 -0.35659,-0.24553 -0.67405,-0.41464 -0.93914,-0.531 z"
         style="fill:#dc322f;fill-opacity:0.49803922;stroke:#ffffff;stroke-width:1.70394873999999996;stroke-linecap:round;stroke-miterlimit:4;stroke-opacity:1;stroke-dasharray:none;stroke-dashoffset:0" />
      <path
         sodipodi:nodetypes="scccssccss"
         inkscape:connector-curvature="0"
         id="path4147-0"
         d="m 384.88115,607.33165 c -1.95244,-0.57987 -1.27642,1.44106 1.05642,2.66061 9.32569,4.87554 43.64585,21.31266 63.94057,28.21043 0.71311,1.48337 2.00832,1.89975 2.95251,2.94045 4.95548,8.65299 19.61976,32.46563 40.81602,54.79213 2.31877,2.44236 3.19845,-0.22195 1.70566,-2.18239 -12.08552,-15.87155 -29.88965,-37.00009 -40.27004,-54.78136 -0.74214,-1.412 -0.60475,-3.06543 -3.20561,-3.39146 -19.44453,-7.9307 -46.67307,-17.88481 -65.99065,-27.83705 -0.38775,-0.19977 -0.72596,-0.32852 -1.00488,-0.41136 z"
         style="fill:#dc322f;fill-opacity:0.49803922;stroke:#ffffff;stroke-width:1.70394873999999996;stroke-linecap:round;stroke-miterlimit:4;stroke-opacity:1;stroke-dasharray:none;stroke-dashoffset:0" />
      <path
         style="fill:#dc322f;fill-opacity:0.49803922;stroke:#ffffff;stroke-width:1.70394873999999996;stroke-linecap:round;stroke-miterlimit:4;stroke-opacity:1;stroke-dasharray:none;stroke-dashoffset:0"
         d="m 379.89858,605.71938 c -1.89946,-0.7196 -1.3934,1.34305 0.83228,2.72758 8.8973,5.53505 41.76632,24.4048 61.43795,32.75142 0.58791,1.52975 1.84535,2.03868 2.70058,3.14413 4.22289,8.9812 16.86861,33.77161 36.15453,57.55582 2.10981,2.60187 3.20927,0.0112 1.88338,-2.05048 -10.73465,-16.69117 -26.7363,-39.03541 -35.61078,-57.50543 -0.62276,-1.46072 -0.34792,-3.09808 -2.91543,-3.61185 -18.73749,-9.31402 -45.07185,-21.20943 -63.5143,-32.52834 -0.37019,-0.22719 -0.69685,-0.38005 -0.96821,-0.48286 z"
         id="path4149-0"
         inkscape:connector-curvature="0"
         sodipodi:nodetypes="scccssccss" />
      <path
         style="fill:#dc322f;fill-opacity:0.49803922;stroke:#ffffff;stroke-width:1.70394873999999996;stroke-linecap:round;stroke-miterlimit:4;stroke-opacity:1;stroke-dasharray:none;stroke-dashoffset:0"
         d="m 389.60237,608.44168 c -1.98609,-0.46639 -1.17797,1.51269 1.22993,2.59591 9.62576,4.33054 44.9506,18.76405 65.65262,24.48096 0.80953,1.44013 2.1292,1.7812 3.13998,2.76594 5.51611,8.3549 21.72069,31.2879 44.34312,52.35989 2.47478,2.30515 3.17599,-0.40622 1.55708,-2.27777 -13.10655,-15.15186 -32.26583,-35.22334 -43.79769,-52.38062 -0.83379,-1.36719 -0.8062,-3.02625 -3.42235,-3.20174 -19.92227,-6.79746 -47.74361,-15.16628 -67.67303,-23.98978 -0.40002,-0.17711 -0.74593,-0.28617 -1.02967,-0.35276 z"
         id="path4151-5"
         inkscape:connector-curvature="0"
         sodipodi:nodetypes="scccssccss" />
    </g>
    <path
       style="fill:#dc322f;fill-opacity:1;stroke:#ffffff;stroke-width:1.70394874;stroke-linecap:round;stroke-miterlimit:4;stroke-opacity:1;stroke-dasharray:none;stroke-dashoffset:0"
       d="m 393.72243,662.05676 c 9.90194,-7.51305 15.53986,-30.2338 27.53299,-19.37731 4.05434,3.67009 -2.00019,6.51937 -5.43559,10.71876 -10.02714,12.25712 -27.997,16.86126 -34.04411,18.33086 -28.53067,6.93367 0.90865,-1.29725 11.94671,-9.67231 z"
       id="path4105-2"
       inkscape:connector-curvature="0"
       sodipodi:nodetypes="sssss" />
    <path
       inkscape:transform-center-y="-17.629161"
       inkscape:transform-center-x="-14.829859"
       sodipodi:nodetypes="sssss"
       inkscape:connector-curvature="0"
       id="path4107-6"
       d="m 390.37283,655.91767 c 8.68502,-8.72636 10.90316,-31.98232 24.37295,-22.76379 4.55354,3.11638 -1.01485,6.72226 -3.79251,11.32917 -8.10745,13.44654 -27.23665,24.5651 -33.00169,26.80199 -27.19976,10.55378 2.73976,-5.63978 12.42125,-15.36737 z"
       style="fill:#dc322f;fill-opacity:1;stroke:#ffffff;stroke-width:1.70394874;stroke-linecap:round;stroke-miterlimit:4;stroke-opacity:1;stroke-dasharray:none;stroke-dashoffset:0" />
    <path
       sodipodi:nodetypes="sssssss"
       inkscape:connector-curvature="0"
       id="path4109-0"
       d="m 340.18142,599.79803 c 8.55306,2.83713 16.76755,6.20102 22.83225,12.90959 1.08654,1.20189 1.90722,2.54729 1.04705,3.88557 -0.86019,1.33828 -2.57991,1.50359 -4.15238,0.94576 -8.44995,-2.99756 -16.18084,-7.11385 -22.83226,-12.90959 -1.23157,-1.07313 -1.90722,-2.54729 -1.04704,-3.88557 0.86017,-1.33828 2.56751,-1.47147 4.15238,-0.94576 z"
       style="fill:#dc322f;fill-opacity:0.49803922;stroke:#ffffff;stroke-width:1.70394873999999996;stroke-linecap:round;stroke-miterlimit:4;stroke-opacity:1;stroke-dasharray:none;stroke-dashoffset:0" />
    <path
       style="fill:#dc322f;fill-opacity:0.49803922;stroke:#ffffff;stroke-width:1.70394873999999996;stroke-linecap:round;stroke-miterlimit:4;stroke-opacity:1;stroke-dasharray:none;stroke-dashoffset:0"
       d="m 372.1031,578.95846 c 6.39617,8.82484 12.0237,17.91583 12.77076,28.69669 0.13384,1.93148 -0.118,3.81179 -2.07079,4.48794 -1.95279,0.67615 -3.83227,-0.38962 -4.97898,-2.04694 -6.16206,-8.90591 -10.69173,-18.37703 -12.77077,-28.69669 -0.38494,-1.91078 0.11801,-3.81179 2.0708,-4.48795 1.95279,-0.67615 3.79378,0.41172 4.97898,2.04695 z"
       id="path4153-9"
       inkscape:connector-curvature="0"
       sodipodi:nodetypes="sssssss" />
    <path
       style="fill:#dc322f;fill-opacity:0.49803922;stroke:#ffffff;stroke-width:1.70394873999999996;stroke-linecap:round;stroke-miterlimit:4;stroke-opacity:1;stroke-dasharray:none;stroke-dashoffset:0"
       d="m 331.99808,610.31623 c 9.00483,0.94299 17.80953,2.47201 25.34347,7.72218 1.34977,0.9406 2.47631,2.0779 1.96785,3.56681 -0.50845,1.48891 -2.13904,2.017 -3.80343,1.8083 -8.94388,-1.12147 -17.46272,-3.48757 -25.34348,-7.72217 -1.45919,-0.78407 -2.4763,-2.07791 -1.96784,-3.56682 0.50846,-1.4889 2.13486,-1.98303 3.80343,-1.8083 z"
       id="path4113-9"
       inkscape:connector-curvature="0"
       sodipodi:nodetypes="sssssss" />
    <path
       sodipodi:nodetypes="scsss"
       inkscape:connector-curvature="0"
       id="path4115-8"
       d="m 368.59819,616.11723 c 8.76846,0.93611 27.80571,19.7318 27.80571,19.7318 0,0 -20.40593,-12.80515 -29.4289,-15.06032 -1.62381,-0.40585 -3.32183,-2.26394 -2.50005,-3.62329 0.8218,-1.35934 2.45504,-1.22628 4.12324,-1.04819 z"
       style="fill:#dc322f;fill-opacity:0.49803922;stroke:#ffffff;stroke-width:1.70394873999999996;stroke-linecap:round;stroke-miterlimit:4;stroke-opacity:1;stroke-dasharray:none;stroke-dashoffset:0" />
    <path
       sodipodi:nodetypes="sssssss"
       inkscape:connector-curvature="0"
       id="path4117-7"
       d="m 326.41621,623.93753 c 9.01243,-0.73303 17.95279,-0.8537 26.43561,2.91379 1.51978,0.67495 2.8626,1.58423 2.67952,3.13997 -0.18308,1.55574 -1.6674,2.37473 -3.34046,2.47643 -8.99048,0.54653 -17.82793,-0.20744 -26.43561,-2.91378 -1.59379,-0.50109 -2.86261,-1.58423 -2.67953,-3.13997 0.18309,-1.55574 1.67048,-2.3406 3.34047,-2.47644 z"
       style="fill:#dc322f;fill-opacity:0.49803922;stroke:#ffffff;stroke-width:1.70394873999999996;stroke-linecap:round;stroke-miterlimit:4;stroke-opacity:1;stroke-dasharray:none;stroke-dashoffset:0" />
    <path
       style="fill:#dc322f;fill-opacity:0.49803922;stroke:#ffffff;stroke-width:1.70394873999999996;stroke-linecap:round;stroke-miterlimit:4;stroke-opacity:1;stroke-dasharray:none;stroke-dashoffset:0"
       d="m 363.06565,621.92224 c 8.80443,-0.38305 34.74417,14.79966 34.74417,14.79966 0,0 -26.66922,-8.92146 -35.95025,-9.80429 -1.67026,-0.15888 -3.25696,-1.87774 -2.6794,-3.34404 0.57761,-1.46627 2.21044,-1.57846 3.88548,-1.65133 z"
       id="path4119-1"
       inkscape:connector-curvature="0"
       sodipodi:nodetypes="scsss" />
    <path
       style="fill:#dc322f;fill-opacity:0.49803922;stroke:#ffffff;stroke-width:1.70394873999999996;stroke-linecap:round;stroke-miterlimit:4;stroke-opacity:1;stroke-dasharray:none;stroke-dashoffset:0"
       d="m 330.51146,639.14805 c 8.79852,-1.92375 17.61909,-3.23109 26.57963,-0.62444 1.60534,0.46702 3.07147,1.18968 3.12748,2.75573 0.056,1.56606 -1.2867,2.57487 -2.92529,2.89794 -8.80523,1.736 -17.6573,2.16289 -26.57963,0.62445 -1.65205,-0.28485 -3.07148,-1.18968 -3.12749,-2.75573 -0.056,-1.56607 1.29495,-2.54148 2.9253,-2.89795 z"
       id="path4121-9"
       inkscape:connector-curvature="0"
       sodipodi:nodetypes="sssssss" />
    <path
       sodipodi:nodetypes="scsss"
       inkscape:connector-curvature="0"
       id="path4123-7"
       d="m 359.59226,628.48982 c 8.58571,-1.81007 36.92395,8.94233 36.92395,8.94233 0,0 -27.92515,-4.45961 -37.21563,-3.82028 -1.67195,0.11505 -3.5151,-1.32154 -3.22074,-2.86149 0.29436,-1.53993 1.879,-1.91619 3.51242,-2.26056 z"
       style="fill:#dc322f;fill-opacity:0.49803922;stroke:#ffffff;stroke-width:1.70394873999999996;stroke-linecap:round;stroke-miterlimit:4;stroke-opacity:1;stroke-dasharray:none;stroke-dashoffset:0" />
    <path
       style="fill:#dc322f;fill-opacity:0.49803922;stroke:#ffffff;stroke-width:1.70394873999999996;stroke-linecap:round;stroke-miterlimit:4;stroke-opacity:1;stroke-dasharray:none;stroke-dashoffset:0"
       d="m 374.64109,609.44709 c 8.40812,2.54496 23.05674,23.30812 23.05674,23.30812 0,0 -17.9445,-14.7291 -26.32144,-18.61187 -1.50755,-0.69876 -2.10251,-3.25953 -1.00619,-4.43679 1.09632,-1.17726 2.67124,-0.74364 4.27089,-0.25946 z"
       id="path4111-1"
       inkscape:connector-curvature="0"
       sodipodi:nodetypes="scsss" />
    <path
       sodipodi:nodetypes="sssssss"
       inkscape:connector-curvature="0"
       id="path4125-6"
       d="m 346.34678,591.7302 c 8.54426,2.86066 16.74827,6.24712 22.79186,12.97223 1.08276,1.20486 1.8992,2.55249 1.03477,3.88835 -0.86444,1.33587 -2.58472,1.49643 -4.15545,0.93428 -8.44063,-3.02081 -16.15865,-7.1583 -22.79186,-12.97223 -1.2282,-1.0765 -1.8992,-2.55248 -1.03477,-3.88835 0.86444,-1.33586 2.57222,-1.46435 4.15545,-0.93428 z"
       style="fill:#dc322f;fill-opacity:0.49803922;stroke:#ffffff;stroke-width:1.70394873999999996;stroke-linecap:round;stroke-miterlimit:4;stroke-opacity:1;stroke-dasharray:none;stroke-dashoffset:0" />
    <path
       style="fill:#dc322f;fill-opacity:0.49803922;stroke:#ffffff;stroke-width:1.70394873999999996;stroke-linecap:round;stroke-miterlimit:4;stroke-opacity:1;stroke-dasharray:none;stroke-dashoffset:0"
       d="m 363.29923,638.61774 c 7.68654,-3.97547 34.01714,-0.84158 34.01714,-0.84158 0,0 -24.05813,2.81698 -32.76911,5.84862 -1.56765,0.54558 -3.76208,-0.35813 -3.9393,-1.91726 -0.1772,-1.5591 1.22891,-2.33345 2.69127,-3.08978 z"
       id="path7172"
       inkscape:connector-curvature="0"
       sodipodi:nodetypes="scsss" />
    <path
       style="fill:#dc322f;fill-opacity:1;stroke:#ffffff;stroke-width:1.70394874;stroke-linecap:round;stroke-miterlimit:4;stroke-opacity:1;stroke-dasharray:none;stroke-dashoffset:0"
       d="m 384.44419,654.94766 c 7.66384,-9.52634 7.29074,-32.89163 21.69839,-25.01657 4.87059,2.6622 -0.26351,6.78997 -2.51333,11.64453 -6.56672,14.16937 -24.34462,27.08653 -29.82586,29.8705 -25.86084,13.13491 2.09765,-5.8791 10.6408,-16.49846 z"
       id="path4129-7"
       inkscape:connector-curvature="0"
       sodipodi:nodetypes="sssss"
       inkscape:transform-center-x="-13.077886"
       inkscape:transform-center-y="-18.847415" />
    <path
       sodipodi:nodetypes="sssss"
       inkscape:connector-curvature="0"
       id="path4131-4"
       d="m 376.32633,572.93495 c 5.06612,25.73161 -3.94118,20.74719 -10.55733,20.77909 -20.85369,0.10052 -19.7527,-17.04412 -21.65638,-26.07353 -1.2098,-5.73824 12.42598,-8.90253 18.95792,-9.83833 22.46591,-3.21858 12.12343,9.38134 13.25579,15.13277 z"
       style="fill:#dc322f;fill-opacity:1;stroke:#ffffff;stroke-width:1.70394874;stroke-linecap:round;stroke-miterlimit:4;stroke-opacity:1;stroke-dasharray:none;stroke-dashoffset:0" />
    <path
       style="fill:#dc322f;fill-opacity:1;stroke:#ffffff;stroke-width:1.70394874;stroke-linecap:round;stroke-miterlimit:4;stroke-opacity:1;stroke-dasharray:none;stroke-dashoffset:0"
       d="m 350.70901,575.79367 c 16.47536,21.24081 3.88378,19.92035 -2.04218,22.62338 -18.67826,8.51981 -27.72176,-5.07723 -33.61617,-12.47988 -3.74593,-4.70442 8.21394,-12.92902 13.64533,-16.4161 18.68072,-11.99346 18.33051,1.52493 22.01302,6.2726 z"
       id="path4133-0"
       inkscape:connector-curvature="0"
       sodipodi:nodetypes="sssss" />
    <path
       sodipodi:nodetypes="sssss"
       inkscape:connector-curvature="0"
       id="path4135-2"
       d="m 325.76038,588.91595 c 22.33423,10.55901 8.32993,10.58054 6.62052,15.84164 -7.36861,22.67864 -33.12665,39.38347 -32.90497,7.82607 0.0366,-5.20736 4.9608,-18.177 7.70618,-23.03374 9.44244,-16.70427 13.58621,-2.99408 18.57827,-0.63397 z"
       style="fill:#dc322f;fill-opacity:1;stroke:#ffffff;stroke-width:1.70394874;stroke-linecap:round;stroke-miterlimit:4;stroke-opacity:1;stroke-dasharray:none;stroke-dashoffset:0" />
    <path
       style="fill:#dc322f;fill-opacity:1;stroke:#ffffff;stroke-width:1.70394874;stroke-linecap:round;stroke-miterlimit:4;stroke-opacity:1;stroke-dasharray:none;stroke-dashoffset:0"
       d="m 314.52851,616.59428 c 13.42453,3.29754 19.02357,13.06241 19.72419,18.95655 2.20833,18.57798 -17.35207,6.10939 -24.26655,8.90786 -4.3942,1.77844 -8.47805,-14.84557 -10.45218,-20.40937 -4.61012,-12.99294 10.35104,-8.59565 14.99454,-7.45504 z"
       id="path4137-5"
       inkscape:connector-curvature="0"
       sodipodi:nodetypes="sssss" />
    <path
       sodipodi:nodetypes="ssssss"
       inkscape:connector-curvature="0"
       id="path4139-6"
       d="m 324.07344,641.44431 c 15.76824,-1.83394 16.25574,2.54893 21.37102,6.09384 7.90828,5.48046 3.94154,7.10944 0.99354,9.74253 -2.98591,2.66696 -5.03977,6.3131 -10.57246,7.95332 -4.56749,1.35407 -19.73788,-9.17264 -23.39096,-13.9493 -17.23545,-22.53659 3.22164,-8.86606 11.59886,-9.84039 z"
       style="fill:#dc322f;fill-opacity:1;stroke:#ffffff;stroke-width:1.70394874;stroke-linecap:round;stroke-miterlimit:4;stroke-opacity:1;stroke-dasharray:none;stroke-dashoffset:0" />
    <path
       style="fill:#dc322f;fill-opacity:1;stroke:#ffffff;stroke-width:1.70394874;stroke-linecap:round;stroke-miterlimit:4;stroke-opacity:1;stroke-dasharray:none;stroke-dashoffset:0"
       d="m 337.62019,652.8237 c 13.48341,-7.77674 22.58081,-0.95424 28.79178,0.30488 9.60223,1.94661 16.11871,2.7329 19.01799,10.82855 1.31914,3.68341 14.98571,5.02173 -5.82465,10.61171 -21.27187,5.71395 -42.70383,-5.31735 -48.13556,-8.26751 -25.62726,-13.91895 -1.01291,-9.34607 6.15044,-13.47763 z"
       id="path4143-7"
       inkscape:connector-curvature="0"
       sodipodi:nodetypes="ssssss" />
    <path
       sodipodi:nodetypes="czsssssscsc"
       inkscape:connector-curvature="0"
       id="path4155-1"
       d="m 470.21796,607.43279 c -5.9065,-2.54491 5.43152,9.18274 42.03409,20.53879 36.60253,11.35604 -8.61041,1.50383 -42.70614,-6.9858 -19.24732,-4.79247 -37.71787,-2.26467 -41.75356,-2.31338 -24.43872,-0.29497 -52.88914,-1.43153 -63.37475,-42.85623 -4.94989,-19.55514 17.69209,-22.26956 34.44652,-14.14039 11.76519,5.70841 29.50491,10.15687 69.02229,31.37927 15.53987,8.34552 27.16789,15.97709 41.19994,20.05518 42.38904,12.31941 50.812,10.0919 69.06352,10.3864 -2.33909,-1.68724 -50.23529,8.79566 -107.93187,-16.06382 z"
       style="fill:#dc322f;fill-opacity:1;stroke:#ffffff;stroke-width:1.70394874;stroke-linecap:butt;stroke-linejoin:miter;stroke-miterlimit:4;stroke-opacity:1;stroke-dasharray:none;stroke-dashoffset:0" />
    <path
       transform="matrix(1.4521725,0.4320432,-0.45069676,1.3525749,429.22972,591.91002)"
       d="m 32.729848,1.9398613 a 3.2037153,3.2037153 0 1 1 -6.407431,0 3.2037153,3.2037153 0 1 1 6.407431,0 z"
       sodipodi:ry="3.2037153"
       sodipodi:rx="3.2037153"
       sodipodi:cy="1.9398613"
       sodipodi:cx="29.526133"
       id="path4157-4"
       style="fill:#dc322f;fill-opacity:1;stroke:#ffffff;stroke-width:1.15968764;stroke-linecap:round;stroke-miterlimit:4;stroke-opacity:1;stroke-dasharray:none;stroke-dashoffset:0"
       sodipodi:type="arc" />
    <text
       xml:space="preserve"
       style="font-size:59.38101578px;font-style:normal;font-variant:normal;font-weight:normal;font-stretch:normal;line-height:125%;letter-spacing:-3.30837083px;word-spacing:0px;fill:#dc322f;fill-opacity:1;stroke:#dc322f;stroke-width:2.45600009;stroke-miterlimit:4;stroke-opacity:1;stroke-dasharray:none;font-family:TakaoExMincho;-inkscape-font-specification:TakaoExMincho"
       x="408.87924"
       y="689.26154"
       id="text5281"
       sodipodi:linespacing="125%"
       transform="scale(1.0299098,0.97095878)"><tspan
         sodipodi:role="line"
         id="tspan5283"
         x="408.87924"
         y="689.26154"
         style="font-size:59.38101578px;font-style:normal;font-variant:normal;font-weight:bold;font-stretch:normal;letter-spacing:-3.30837083px;word-spacing:0px;fill:#dc322f;fill-opacity:1;stroke:#dc322f;stroke-width:2.45600009;stroke-miterlimit:4;stroke-opacity:1;stroke-dasharray:none;font-family:Linux Biolinum O;-inkscape-font-specification:Linux Biolinum O Bold"
         rotate="0">PrAN</tspan></text>
  </g>
</svg>
